<?xml version="1.0" encoding="UTF-8" standalone="no"?>
<!-- Created with Inkscape (http://www.inkscape.org/) -->

<svg
   width="48"
   height="48"
   viewBox="0 0 48 48"
   version="1.1"
   id="svg1"
   xml:space="preserve"
   xmlns="http://www.w3.org/2000/svg"
   xmlns:svg="http://www.w3.org/2000/svg"
   xmlns:rdf="http://www.w3.org/1999/02/22-rdf-syntax-ns#"
   xmlns:cc="http://creativecommons.org/ns#"
   xmlns:dc="http://purl.org/dc/elements/1.1/"><title
     id="title11">FreeCAD</title><defs
     id="defs1" /><g
     id="g1"
     transform="matrix(2,0,0,2,0.11243557,0)"><path
       id="path8"
       style="fill:#418fde;fill-opacity:1;fill-rule:evenodd;stroke:none;stroke-width:2.64567;stroke-linecap:square"
       d="M 6.0004228 0 L 2.0004228 4 L 2.0004228 24 L 10.050228 24 C 10.353486 23.999999 10.622536 23.805021 10.716243 23.516602 L 11.439876 21.288086 C 11.509126 21.074999 11.676001 20.908099 11.889095 20.838867 L 12.445735 20.658203 C 12.658843 20.588943 12.892376 20.625136 13.073665 20.756836 L 14.969173 22.134766 C 15.214504 22.312996 15.547082 22.312993 15.792415 22.134766 L 17.490657 20.900391 C 17.73602 20.722149 17.838279 20.405616 17.744563 20.117188 L 17.020931 17.889648 C 16.951671 17.676541 16.98883 17.44301 17.12054 17.261719 L 17.465267 16.788086 C 17.596962 16.60681 17.806633 16.499037 18.030696 16.499023 L 20.37347 16.5 C 20.676746 16.50001 20.94578 16.304062 21.039485 16.015625 L 21.687923 14.018555 C 21.781623 13.730142 21.679322 13.413595 21.434017 13.235352 L 19.538509 11.858398 C 19.357226 11.726691 19.250418 11.517046 19.250423 11.292969 L 19.250423 10.707031 C 19.250442 10.482959 19.357218 10.272316 19.538509 10.140625 L 21.71136 8.5625 C 21.892638 8.4307939 22.000422 8.2201653 22.000423 7.9960938 L 22.000423 0 L 6.0004228 0 z M 6.0004228 4 L 18.000423 4 L 18.000423 8 L 10.000423 8 L 10.000423 11 L 14.000423 11 L 14.000423 15 L 10.000423 15 L 10.000423 20 L 6.0004228 20 L 6.0004228 16 L 6.0004228 4 z " /></g><metadata
     id="metadata11"><rdf:RDF><cc:Work
         rdf:about=""><dc:title>FreeCAD</dc:title></cc:Work></rdf:RDF></metadata></svg>
