<svg width="64" height="64" viewBox="0 0 64 64" fill="none" xmlns="http://www.w3.org/2000/svg">
<g clip-path="url(#clip0_200_1121)">
<path fill-rule="evenodd" clip-rule="evenodd" d="M20 8H52V16L44 24V16H20V48H28L20 56H12V16L20 8Z" fill="#FF585D"/>
<path d="M20 40L12 48V16L20 8H44L36 16H20V40Z" fill="#CB333B"/>
<path fill-rule="evenodd" clip-rule="evenodd" d="M52 16L44.0005 24.0005H28.0005V30.0001H36V38.0006H28.0005V48L20 56.0005H28.1008C28.7073 56.0005 29.2445 55.61 29.4319 55.0331L30.8799 50.5766C31.0184 50.1504 31.3529 49.8169 31.7791 49.6784L32.8922 49.3167C33.3184 49.1782 33.7853 49.2517 34.1479 49.5151L37.9379 52.2695C38.4285 52.626 39.0936 52.626 39.5843 52.2695L42.9815 49.8004C43.4722 49.4439 43.6774 48.8125 43.49 48.2356L42.042 43.7791C41.9035 43.3529 41.978 42.8859 42.2415 42.5234L42.9298 41.5766C43.1932 41.2141 43.6134 40.9989 44.0615 40.9989L48.7475 40.9999C49.3541 40.9999 49.8913 40.6084 50.0787 40.0315L51.3768 36.038C51.5642 35.4611 51.359 34.8287 50.8683 34.4722L47.0773 31.7178C46.7148 31.4544 46.5006 31.0343 46.5006 30.5861V29.4152C46.5007 28.967 46.7147 28.5458 47.0773 28.2824L51.4233 25.125C51.7858 24.8616 52 24.4404 52 23.9922V16Z" fill="#418FDE"/>
<path fill-rule="evenodd" clip-rule="evenodd" d="M20 16H44V24H28L28 30.0001H36L36 38H28L28 48H20V16Z" fill="white"/>
</g>
<defs>
<clipPath id="clip0_200_1121">
<rect width="40" height="48" fill="white" transform="translate(12 8)"/>
</clipPath>
</defs>
</svg>
